<svg width="45" height="45" viewBox="0 0 45 45" fill="none" xmlns="http://www.w3.org/2000/svg">
<g clip-path="url(#clip0_10858_13033)">
<path d="M45 22.501C45 10.0746 34.9264 0.000976562 22.5 0.000976562C10.0736 0.000976562 0 10.0746 0 22.501C0 34.9274 10.0736 45.001 22.5 45.001C34.9264 45.001 45 34.9274 45 22.501Z" fill="url(#paint0_linear_10858_13033)"/>
<path d="M27.044 17.7921C27.044 20.3147 25.0251 22.3341 22.5 22.3341C19.9758 22.3341 17.956 20.3146 17.956 17.7921C17.956 15.2696 19.9757 13.251 22.5 13.251C25.0252 13.251 27.044 15.2695 27.044 17.7921ZM22.5 31.751C20.3494 31.751 18.4559 31.5732 17.1238 31.1015C16.4627 30.8674 15.9925 30.5788 15.6929 30.2519C15.4089 29.9419 15.25 29.5688 15.25 29.076C15.25 28.5843 15.4092 28.2135 15.6938 27.9059C15.9944 27.5809 16.4663 27.2946 17.1293 27.0631C18.4652 26.5965 20.3596 26.4249 22.5 26.4249C24.6511 26.4249 26.5446 26.6026 27.8766 27.0744C28.5376 27.3085 29.0076 27.5971 29.3071 27.9239C29.5912 28.2339 29.75 28.6071 29.75 29.1C29.75 29.5916 29.5908 29.9624 29.3062 30.27C29.0056 30.5949 28.5338 30.8812 27.8707 31.1128C26.5348 31.5793 24.6404 31.751 22.5 31.751Z" stroke="white" stroke-width="1.5"/>
</g>
<defs>
<linearGradient id="paint0_linear_10858_13033" x1="22.5" y1="0.000976562" x2="22.5" y2="45.001" gradientUnits="userSpaceOnUse">
<stop stop-color="#6486FF"/>
<stop offset="1" stop-color="#97CDFF"/>
</linearGradient>
<clipPath id="clip0_10858_13033">
<rect width="45" height="45" fill="white" transform="translate(0 0.000976562)"/>
</clipPath>
</defs>
</svg>
